<?xml version="1.0" encoding="UTF-8" standalone="no"?>
<!DOCTYPE svg PUBLIC "-//W3C//DTD SVG 1.1//EN" "http://www.w3.org/Graphics/SVG/1.1/DTD/svg11.dtd">
<svg version="1.1" xmlns="http://www.w3.org/2000/svg" xmlns:xlink="http://www.w3.org/1999/xlink" preserveAspectRatio="xMidYMid meet" viewBox="0 0 640 640" width="640" height="640"><defs><path d="M402.05 297.35L412.5 298.41L422.83 299.88L433.02 301.76L443.07 304.03L452.96 306.68L462.7 309.71L472.27 313.11L481.66 316.87L490.87 320.98L499.88 325.44L508.69 330.23L517.3 335.35L525.68 340.78L533.84 346.53L541.77 352.57L549.45 358.91L556.88 365.54L564.05 372.44L570.95 379.61L577.58 387.04L583.92 394.72L589.96 402.65L595.71 410.81L601.14 419.19L606.26 427.8L611.05 436.61L615.51 445.62L619.62 454.83L623.38 464.22L626.78 473.79L629.81 483.53L632.46 493.42L634.73 503.47L636.61 513.66L638.08 523.99L639.14 534.44L639.78 545L640 555.68L639.91 560L121.71 560L121.62 555.68L121.84 545L122.48 534.44L123.54 523.99L125.01 513.66L126.89 503.47L129.16 493.42L131.81 483.53L134.84 473.79L138.24 464.22L142 454.83L146.11 445.62L150.57 436.61L155.36 427.8L160.48 419.19L165.91 410.81L171.66 402.65L177.7 394.72L184.04 387.04L190.67 379.61L197.57 372.44L204.74 365.54L212.17 358.91L219.85 352.57L227.78 346.53L235.94 340.78L244.32 335.35L252.93 330.23L261.74 325.44L270.75 320.98L279.96 316.87L289.35 313.11L298.92 309.71L308.66 306.68L318.55 304.03L328.6 301.76L338.79 299.88L349.12 298.41L359.57 297.35L370.13 296.71L380.81 296.49L391.49 296.71L402.05 297.35Z" id="gCxa4VdH2"></path><path d="M490.36 151.71C490.36 213.37 440.3 263.43 378.65 263.43C316.99 263.43 266.93 213.37 266.93 151.71C266.93 90.06 316.99 40 378.65 40C440.3 40 490.36 90.06 490.36 151.71Z" id="biwALPwp"></path><path d="M368.74 231.71C368.74 293.37 318.68 343.43 257.03 343.43C195.37 343.43 145.31 293.37 145.31 231.71C145.31 170.06 195.37 120 257.03 120C318.68 120 368.74 170.06 368.74 231.71Z" id="gZdlgdzsU"></path><path d="M280.43 377.35L290.88 378.41L301.21 379.88L311.4 381.76L321.45 384.03L331.34 386.68L341.08 389.71L350.65 393.11L360.04 396.87L369.25 400.98L378.26 405.44L387.07 410.23L395.68 415.35L404.06 420.78L412.22 426.53L420.15 432.57L427.83 438.91L435.26 445.54L442.43 452.44L449.33 459.61L455.96 467.04L462.3 474.72L468.34 482.65L474.09 490.81L479.52 499.19L484.64 507.8L489.43 516.61L493.89 525.62L498 534.83L501.76 544.22L505.16 553.79L508.19 563.53L510.84 573.42L513.11 583.47L514.99 593.66L516.46 603.99L517.52 614.44L518.16 625L518.38 635.68L518.29 640L0.09 640L0 635.68L0.22 625L0.86 614.44L1.92 603.99L3.39 593.66L5.27 583.47L7.54 573.42L10.19 563.53L13.22 553.79L16.62 544.22L20.38 534.83L24.49 525.62L28.95 516.61L33.74 507.8L38.86 499.19L44.29 490.81L50.04 482.65L56.08 474.72L62.42 467.04L69.05 459.61L75.95 452.44L83.12 445.54L90.55 438.91L98.23 432.57L106.16 426.53L114.32 420.78L122.7 415.35L131.31 410.23L140.12 405.44L149.13 400.98L158.34 396.87L167.73 393.11L177.3 389.71L187.04 386.68L196.93 384.03L206.98 381.76L217.17 379.88L227.5 378.41L237.95 377.35L248.51 376.71L259.19 376.49L269.87 376.71L280.43 377.35Z" id="i5YeqEiLRi"></path></defs><g><g><g><use xlink:href="#gCxa4VdH2" opacity="1" fill="#6d6dee" fill-opacity="1"></use></g><g><use xlink:href="#biwALPwp" opacity="1" fill="#6d6dee" fill-opacity="1"></use></g><g><use xlink:href="#gZdlgdzsU" opacity="1" fill="#4b4bff" fill-opacity="1"></use></g><g><use xlink:href="#i5YeqEiLRi" opacity="1" fill="#4b4bff" fill-opacity="1"></use></g></g></g></svg>