<?xml version="1.0" encoding="UTF-8" standalone="no"?>
<!DOCTYPE svg PUBLIC "-//W3C//DTD SVG 1.1//EN" "http://www.w3.org/Graphics/SVG/1.1/DTD/svg11.dtd">
<svg version="1.1" xmlns="http://www.w3.org/2000/svg" xmlns:xlink="http://www.w3.org/1999/xlink" preserveAspectRatio="xMidYMid meet" viewBox="0 0 640 640" width="640" height="640"><defs><path d="M289.18 305.83L295.24 306.32L301.24 307.03L307.2 307.98L313.1 309.16L318.93 310.56L324.69 312.19L330.37 314.03L335.98 316.09L341.49 318.35L346.91 320.83L352.23 323.5L357.44 326.38L362.53 329.45L367.51 332.72L372.36 336.18L377.08 339.82L381.66 343.64L386.1 347.64L390.39 351.82L394.52 356.17L398.49 360.69L402.29 365.37L405.91 370.22L409.36 375.22L412.62 380.37L415.68 385.68L418.55 391.13L421.21 396.72L423.65 402.46L425.89 408.33L427.89 414.34L429.67 420.47L431.2 426.67L432.46 432.88L433.47 439.08L434.21 445.27L434.71 451.44L434.95 457.6L434.95 463.73L434.71 469.82L434.22 475.87L433.51 481.88L432.56 487.83L431.38 493.73L429.98 499.56L428.35 505.33L426.51 511.01L424.45 516.61L422.19 522.13L419.71 527.55L417.04 532.86L416.25 534.28L450.49 554.05L432.46 585.28L395.44 563.91L392.9 566.74L388.72 571.02L384.37 575.16L379.85 579.12L375.17 582.92L370.32 586.55L365.32 589.99L360.17 593.25L354.86 596.32L349.41 599.18L343.81 601.84L338.08 604.29L332.21 606.52L326.2 608.53L320.07 610.31L313.87 611.83L307.66 613.1L301.46 614.1L295.27 614.85L289.1 615.34L282.94 615.59L276.81 615.59L270.72 615.34L264.67 614.86L258.66 614.14L252.71 613.19L246.81 612.01L240.98 610.61L235.21 608.99L229.53 607.15L223.93 605.09L218.41 602.82L212.99 600.35L207.68 597.67L202.47 594.8L197.37 591.72L192.39 588.46L187.54 585L182.82 581.36L178.24 577.53L173.8 573.53L169.52 569.35L165.38 565L161.42 560.49L157.62 555.8L153.99 550.96L150.55 545.96L147.29 540.8L144.22 535.5L141.36 530.05L138.7 524.45L136.25 518.72L134.02 512.84L132.01 506.84L130.23 500.71L128.71 494.5L127.44 488.3L126.44 482.1L125.69 475.91L125.2 469.73L124.95 463.58L124.95 457.45L125.2 451.36L125.68 445.3L126.4 439.3L127.35 433.34L128.53 427.44L129.93 421.61L131.55 415.85L133.39 410.17L135.45 404.56L137.72 399.05L140.19 393.63L142.87 388.31L145.74 383.1L148.82 378.01L152.08 373.03L155.54 368.18L159.18 363.46L163.01 358.88L167.01 354.44L171.19 350.15L175.54 346.02L180.05 342.05L184.74 338.25L189.58 334.63L194.58 331.18L199.74 327.92L205.04 324.86L210.49 321.99L216.09 319.33L221.82 316.89L227.7 314.65L233.7 312.65L239.83 310.87L246.04 309.34L252.24 308.08L258.44 307.07L264.63 306.33L270.81 305.83L276.96 305.59L283.09 305.59L289.18 305.83ZM268.68 347.12L264.13 347.66L259.57 348.4L255 349.33L250.44 350.46L245.93 351.76L241.51 353.24L237.19 354.88L232.97 356.68L228.86 358.64L224.85 360.75L220.95 363L217.15 365.4L213.47 367.93L209.91 370.6L206.47 373.39L203.14 376.31L199.94 379.35L196.87 382.51L193.93 385.77L191.11 389.14L188.44 392.61L185.89 396.18L183.49 399.84L181.23 403.59L179.11 407.42L177.14 411.33L175.33 415.32L173.66 419.38L172.15 423.5L170.79 427.68L169.6 431.92L168.56 436.21L167.7 440.55L167 444.93L166.47 449.35L166.12 453.8L165.94 458.28L165.94 462.79L166.12 467.31L166.48 471.86L167.03 476.41L167.77 480.97L168.7 485.54L169.82 490.1L171.13 494.61L172.6 499.03L174.25 503.35L176.05 507.57L178 511.68L180.11 515.69L182.37 519.59L184.76 523.39L187.3 527.07L189.96 530.63L192.76 534.07L195.68 537.4L198.72 540.6L201.87 543.67L205.13 546.61L208.5 549.43L211.98 552.1L215.54 554.65L219.21 557.05L222.95 559.31L226.79 561.43L230.7 563.4L234.68 565.21L238.74 566.88L242.86 568.39L247.04 569.75L251.28 570.94L255.57 571.98L259.91 572.84L264.29 573.54L268.71 574.07L273.16 574.42L277.64 574.6L282.15 574.6L286.68 574.42L291.22 574.06L295.78 573.51L300.34 572.77L304.9 571.84L309.46 570.72L313.97 569.41L318.39 567.94L322.71 566.29L326.93 564.49L331.05 562.54L335.06 560.43L338.96 558.17L342.75 555.78L346.43 553.24L349.99 550.58L353.44 547.78L356.76 544.86L358.91 542.82L337.19 530.28L355.22 499.04L380.77 513.79L380.79 513.75L382.76 509.84L384.58 505.86L386.25 501.8L387.76 497.68L389.11 493.5L390.31 489.26L391.34 484.97L392.21 480.63L392.9 476.25L393.43 471.83L393.79 467.38L393.97 462.9L393.97 458.39L393.79 453.86L393.42 449.32L392.87 444.76L392.14 440.2L391.21 435.64L390.08 431.08L388.78 426.57L387.3 422.15L385.66 417.83L383.86 413.61L381.9 409.49L379.79 405.48L377.54 401.58L375.14 397.79L372.61 394.11L369.94 390.55L367.15 387.1L364.23 383.78L361.19 380.58L358.03 377.51L354.77 374.56L351.4 371.75L347.93 369.07L344.36 366.53L340.7 364.13L336.95 361.87L333.12 359.75L329.21 357.78L325.22 355.96L321.16 354.29L317.04 352.78L312.86 351.43L308.62 350.23L304.33 349.2L299.99 348.33L295.61 347.64L291.19 347.11L286.74 346.75L282.26 346.57L277.75 346.57L273.23 346.75L268.68 347.12Z" id="a1EfTtYAb5"></path><path d="M459.24 39.26L465.24 39.89L471.23 40.75L477.2 41.85L483.15 43.19L489.06 44.78L494.95 46.6L500.78 48.68L506.57 51L512.3 53.58L517.97 56.41L523.56 59.49L529.03 62.79L534.31 66.28L539.4 69.96L544.31 73.81L549.02 77.83L553.55 82L557.88 86.34L562.02 90.82L565.96 95.44L569.7 100.2L573.23 105.08L576.57 110.08L579.7 115.2L582.63 120.42L585.35 125.74L587.85 131.16L590.15 136.66L592.23 142.24L594.1 147.89L595.75 153.61L597.18 159.39L598.39 165.22L599.38 171.09L600.14 177L600.67 182.95L600.98 188.92L601.06 194.9L600.91 200.9L600.52 206.9L599.89 212.9L599.03 218.88L597.93 224.86L596.59 230.81L595.01 236.72L593.18 242.61L591.1 248.44L588.78 254.23L586.2 259.96L583.38 265.63L580.29 271.22L580.29 271.22L502.79 405.45L470.14 386.6L525.6 290.55L322.43 173.26L266.98 269.31L234.33 250.45L311.83 116.22L311.83 116.22L315.13 110.75L318.62 105.47L322.3 100.38L326.15 95.47L330.17 90.76L334.35 86.23L338.68 81.9L343.16 77.76L347.78 73.83L352.54 70.09L357.42 66.55L362.42 63.21L367.54 60.08L372.76 57.15L378.08 54.43L383.5 51.93L389 49.63L394.58 47.55L400.23 45.68L405.95 44.03L411.73 42.6L417.56 41.39L423.43 40.4L429.34 39.64L435.29 39.11L441.26 38.8L447.24 38.72L453.24 38.88L459.24 39.26ZM438.74 82.87L434.05 83.4L429.37 84.12L424.7 85.03L420.06 86.12L415.44 87.4L410.85 88.86L406.29 90.5L401.78 92.32L397.31 94.32L392.9 96.49L388.55 98.84L384.25 101.35L380.03 104.04L375.88 106.89L371.81 109.91L367.82 113.09L363.93 116.44L360.13 119.94L356.43 123.61L352.83 127.43L349.35 131.4L345.99 135.53L342.75 139.81L340.98 142.32L543.11 259.02L544.41 256.23L546.49 251.29L548.38 246.31L550.09 241.31L551.6 236.29L552.92 231.25L554.06 226.21L555.01 221.16L555.77 216.12L556.35 211.09L556.74 206.07L556.96 201.06L556.99 196.09L556.84 191.14L556.52 186.24L556.01 181.37L555.33 176.55L554.48 171.79L553.45 167.08L552.24 162.44L550.87 157.87L549.32 153.38L547.6 148.96L545.72 144.64L543.67 140.41L541.45 136.27L539.07 132.24L536.52 128.32L533.81 124.52L530.93 120.83L527.9 117.28L524.7 113.85L521.35 110.57L517.84 107.42L514.18 104.43L510.35 101.59L506.38 98.91L502.25 96.4L498.01 94.08L493.7 91.98L489.33 90.09L484.91 88.41L480.43 86.94L475.91 85.68L471.34 84.63L466.75 83.78L462.12 83.13L457.47 82.68L452.8 82.44L448.12 82.39L443.43 82.53L438.74 82.87Z" id="b8Jbc5KWG"></path><path d="M89.46 74.75L89.46 158.16L180.81 158.16L180.81 195.41L89.46 195.41L89.46 347.5L52.21 347.5L52.21 37.5L250.65 37.5L250.65 74.75L89.46 74.75Z" id="abtKvTzBz"></path></defs><g><g><g><use xlink:href="#a1EfTtYAb5" opacity="1" fill="#4b4bff" fill-opacity="1"></use></g><g><use xlink:href="#b8Jbc5KWG" opacity="1" fill="#4b4bff" fill-opacity="1"></use></g><g><use xlink:href="#abtKvTzBz" opacity="1" fill="#4b4bff" fill-opacity="1"></use></g></g></g></svg>